<svg xmlns="http://www.w3.org/2000/svg" width="78" height="85" viewBox="0 0 78 85">
  <metadata><?xpacket begin="﻿" id="W5M0MpCehiHzreSzNTczkc9d"?>
<x:xmpmeta xmlns:x="adobe:ns:meta/" x:xmptk="Adobe XMP Core 5.6-c138 79.159824, 2016/09/14-01:09:01        ">
   <rdf:RDF xmlns:rdf="http://www.w3.org/1999/02/22-rdf-syntax-ns#">
      <rdf:Description rdf:about=""/>
   </rdf:RDF>
</x:xmpmeta>
                                                                                                    
                                                                                                    
                                                                                                    
                                                                                                    
                                                                                                    
                                                                                                    
                                                                                                    
                                                                                                    
                                                                                                    
                                                                                                    
                                                                                                    
                                                                                                    
                                                                                                    
                                                                                                    
                                                                                                    
                                                                                                    
                                                                                                    
                                                                                                    
                                                                                                    
                                                                                                    
                           
<?xpacket end="w"?></metadata>
<defs>
    <style>
      .cls-1 {
        fill: #5a667b;
        fill-rule: evenodd;
      }
    </style>
  </defs>
  <path id="Forma_1" data-name="Forma 1" class="cls-1" d="M438.8,358.208h-2.635v-2.8a6.408,6.408,0,1,0-12.815,0v2.792h-6.577v-2.792a6.408,6.408,0,1,0-12.816,0v2.792h-6.576v-2.792a6.408,6.408,0,1,0-12.816,0v2.792H381.2a10.072,10.072,0,0,0-10.2,9.912v55.971A10.071,10.071,0,0,0,381.2,434h57.6a10.07,10.07,0,0,0,10.2-9.912V368.117A10.068,10.068,0,0,0,438.8,358.208Zm-11.85-2.8a2.809,2.809,0,1,1,5.615,0v11.416a2.809,2.809,0,1,1-5.615,0V355.413Zm-19.394,0a2.81,2.81,0,1,1,5.617,0v11.416a2.81,2.81,0,1,1-5.617,0V355.413Zm-19.392,0a2.81,2.81,0,1,1,5.617,0v11.416a2.81,2.81,0,1,1-5.617,0V355.413ZM443,424.092a4.147,4.147,0,0,1-4.2,4.082H381.2a4.147,4.147,0,0,1-4.2-4.082V372.784h66v51.308Zm-33-46.455a4.909,4.909,0,1,1-5.05,4.907A4.98,4.98,0,0,1,410,377.637Zm-12.619,33.852c0,2.56,3.609,4.149,8.092,4.774v4.689a2.887,2.887,0,0,0,5.771,0v-4.425c5.869-.21,11.374-1.877,11.374-5.038,0-4.851-2.9-12.037-7.1-15.742a5.767,5.767,0,0,0,.539-2.412A5.972,5.972,0,0,0,410,387.449c-3.032,0-7.834,2.145-9.3,5.886-1.1,2.8,9.3,7.422,9.3,7.422s-5.283-.861-7.915-2.369C399.216,402.281,397.379,407.631,397.379,411.489Zm14.163-9.935c1.378-1.2,4.24-1.239,4.5,1.248,0.342,3.2-4.5,5.685-4.5,5.685s-4.84-2.483-4.5-5.685C407.309,400.311,410.163,400.352,411.542,401.554Z" transform="translate(-371 -349)"/>
</svg>
